<svg version="1.2" xmlns="http://www.w3.org/2000/svg" viewBox="0 0 567 543" width="567" height="543">
	<title>dfx-combo-horizontal-light-svg</title>
	<defs>
		<linearGradient id="g1" x2="1" gradientUnits="userSpaceOnUse" gradientTransform="matrix(0,465.503,-232.713,0,275.695,38.754)">
			<stop offset="0" stop-color="#00e9f1"/>
			<stop offset=".33" stop-color="#00e8f1"/>
			<stop offset="1" stop-color="#4712f9"/>
		</linearGradient>
		<linearGradient id="g2" x2="1" gradientUnits="userSpaceOnUse" gradientTransform="matrix(0,-465.218,232.569,0,275.695,503.972)">
			<stop offset="0" stop-color="#eb00d2"/>
			<stop offset=".33" stop-color="#eb00d2"/>
			<stop offset="1" stop-color="#5c00fa"/>
		</linearGradient>
	</defs>
	<style>
		.s0 { fill: none } 
		.s1 { fill: #ffffff } 
		.s2 { fill: url(#g1) } 
		.s3 { fill: url(#g2) } 
	</style>
	<g id="Layer">
		<g id="horizontal-light">
			<path id="Layer" class="s0" d="m-84-62h2044.4v657.6h-2044.4z"/>
			<g id="Layer">
				<path id="Layer" fill-rule="evenodd" class="s1" d="m962.7 202c8.6 18.6 12.9 41.9 12.9 69.3 0 18.2-2 34.7-5.8 49.1-3.9 14.4-9.5 27.3-16.6 38.1-7.2 10.9-16 20.3-26.3 27.9-10.1 7.5-21.5 13.6-33.8 18.2-12.2 4.4-25.6 7.7-39.7 9.7-14 2-28.9 3-44.3 3h-181.6c-1.5 0-2.7-1.3-2.7-2.8v-286.1c0-1.5 1.2-2.7 2.7-2.7h181.2c23.1 0 44.8 2.3 64.7 6.8 20.3 4.6 38.3 12.7 53.4 23.9 15.2 11.4 27.3 26.8 35.9 45.6zm-33.4 31.8c-2.7-10.6-6.6-19.9-11.6-27.5-4.9-7.6-10.9-14.1-17.9-19.2-7.2-5.2-15.4-9.5-24.5-12.8-9.3-3.3-19.5-5.7-30.5-7.1-11.2-1.4-23.3-2.1-36-2.1h-142.5v212.8h142.5c18.9 0 36.4-1.8 52.1-5.2 15-3.2 28-8.9 38.7-16.9 10.5-7.9 18.8-18.6 24.7-32 6-13.6 9.1-31.3 9.1-52.4 0-14.2-1.4-26.9-4.1-37.6z"/>
			</g>
			<g id="Layer">
				<path id="Layer" class="s1" d="m1371.4 125.7h-168c-24.8 0-46.3 2.1-64 6.3-18 4.3-33.2 10.6-44.9 18.9-12.1 8.5-21.1 19.2-26.7 31.7-5.5 12.3-8.2 26.2-8.2 41.4v190.5c0 1.5 1.2 2.8 2.7 2.8h36.1c1.5 0 2.7-1.3 2.7-2.8v-123.9h266.3c1.6 0 2.8-1.3 2.8-2.8v-34.5c0-1.5-1.2-2.7-2.8-2.7h-266.3v-22.4c0-11 2-20.5 5.9-28.2 3.8-7.5 9.8-13.8 17.9-18.7 8.5-5.2 19.6-9.1 33.1-11.7 13.9-2.6 30.9-3.9 50.4-3.9h163c1.6 0 2.8-1.2 2.8-2.8v-34.5c0-1.5-1.2-2.7-2.8-2.7z"/>
			</g>
			<g id="Layer">
				<path id="Layer" class="s1" d="m1815.6 127.4c-0.5-1.1-1.5-1.7-2.6-1.7h-55.4c-0.7 0-1.4 0.3-1.9 0.8l-320.1 286.1c-0.8 0.7-1 1.9-0.6 3 0.4 1 1.4 1.7 2.5 1.7h55.4c0.8 0 1.5-0.3 2-0.8l320.1-286.1c0.7-0.8 1-2 0.6-3z"/>
			</g>
			<g id="Layer">
				<path id="Layer" class="s1" d="m1676.9 292.4l-28.5 25.5c-0.9 0.8-0.8 2 0.2 2.8l107.1 95.8c0.5 0.5 1.2 0.8 1.9 0.8h55.4c1.1 0 2.1-0.7 2.6-1.7 0.4-1.1 0.2-2.3-0.6-3l-134.4-120.1c-1.3-1.1-2.6-0.8-3.7-0.1z"/>
			</g>
			<g id="Layer">
				<path id="Layer" class="s1" d="m1573.6 250.6l28.6-25.6c0.8-0.7 0.7-1.9-0.3-2.8l-107-95.7c-0.5-0.5-1.2-0.8-2-0.8h-55.3c-1.2 0-2.2 0.6-2.6 1.7-0.4 1-0.2 2.2 0.6 3l134.4 120.1c1.2 1.1 2.5 0.7 3.6 0.1z"/>
			</g>
			<g id="Layer">
				<path id="Layer" class="s2" d="m274.9 38.7c-59.6 0-119.1 22.8-164.6 68.2-90.9 90.9-90.9 238.3 0 329.2 45.5 45.4 105 68.1 164.6 68.1v-102.4c-72 0-130.3-58.3-130.3-130.3 0-36 14.5-68.6 38.1-92.2l92.2 92.2z"/>
			</g>
			<g id="Layer">
				<path id="Layer" class="s3" d="m274.9 504.2c59.6 0 119.1-22.7 164.6-68.1 90.9-90.9 90.9-238.3 0-329.2-45.5-45.4-105-68.2-164.6-68.2v102.4c72 0 130.3 58.4 130.3 130.4 0 36-14.6 68.6-38.1 92.2l-92.2-92.2z"/>
			</g>
		</g>
	</g>
</svg>